<svg width="512" height="512" viewBox="0 0 512 512" fill="none" xmlns="http://www.w3.org/2000/svg">
<g clip-path="url(#clip0_56_214)">
<rect width="512" height="512" rx="87.7714" fill="url(#paint0_linear_56_214)"/>
<path d="M23.5589 315.62C25.6748 312.245 37.4618 294.791 37.955 292.35C44.5245 259.841 51.78 184.072 69.7391 158.331C107.877 103.667 162.817 217.927 180.825 244.646C234.144 242.212 283.208 251.41 334.406 264.287C334.556 264.215 334.707 264.147 334.854 264.072C341.248 260.804 349.577 252.079 355.486 247.276C377.684 229.234 433.167 182.625 462.988 191.62C469.381 193.547 474.321 198.14 477.332 204.012C490.081 228.86 475.737 294.014 469.159 321.536L464.472 340.778C463.871 343.169 461.349 352.187 461.497 353.885C462.321 363.16 465.666 373.173 467.119 382.805C467.905 392.347 469.018 404.046 468.766 413.486C467.104 424.463 467.423 444.032 463.151 455.065C458.983 460.43 379.353 486.81 367.133 490.719C291.311 515.494 213.649 534.239 134.874 546.779C132.507 547.004 126.273 547.477 124.12 548.02C118.7 547.803 115.964 545.281 114.081 540.238C113.917 540.19 113.76 540.108 113.59 540.096C113.111 540.063 112.631 540.156 112.152 540.138C108.073 539.988 70.2493 497.697 64.5416 491.845C63.7643 490.269 52.1961 477.058 50.0795 476.179C31.232 451.266 14.0443 424.681 -4.23438 399.373C-2.67321 396.862 -0.643322 380.001 0.0834923 376.222C0.7799 372.6 1.64319 368.942 2.69707 365.129C8.58057 344.551 13.5897 334.23 23.5589 315.62Z" fill="#171717"/>
<path d="M138.648 332.252C171.463 329.344 200.431 353.568 203.374 386.38C206.319 419.192 182.125 448.186 149.316 451.165C116.458 454.149 87.4094 429.911 84.4614 397.049C81.5126 364.187 105.782 335.166 138.648 332.252Z" fill="#FEF6EC"/>
<path d="M145.816 362.271C162.548 359.476 178.405 370.693 181.34 387.402C184.275 404.111 173.191 420.061 156.507 423.137C139.624 426.249 123.442 415.003 120.471 398.094C117.501 381.186 128.882 365.099 145.816 362.271Z" fill="#171717"/>
<path d="M309.552 355.834C342.224 352.769 371.184 376.795 374.203 409.471C377.221 442.146 353.156 471.073 320.476 474.047C287.861 477.015 259.004 453.007 255.99 420.395C252.976 387.783 276.945 358.893 309.552 355.834Z" fill="#FEF6EC"/>
<path d="M308.38 384.916C325.454 383.099 340.78 395.439 342.648 412.507C344.516 429.576 332.223 444.939 315.161 446.86C298.024 448.789 282.58 436.431 280.703 419.288C278.827 402.146 291.232 386.739 308.38 384.916Z" fill="#171717"/>
<path d="M465.797 466.366C468.391 450.658 469.092 425.27 468.969 413.156L298.724 497.21L125.92 512.043L0.581966 383.738L-53.1875 611.795C63.1276 636.64 321.174 679.129 388.093 611.795C455.931 543.537 462.789 484.586 465.797 466.366Z" fill="#171717"/>
</g>
<defs>
<linearGradient id="paint0_linear_56_214" x1="256" y1="0" x2="256" y2="512" gradientUnits="userSpaceOnUse">
<stop stop-color="#4A8EF9"/>
<stop offset="0.716346" stop-color="#B2D0FF"/>
</linearGradient>
<clipPath id="clip0_56_214">
<rect width="512" height="512" rx="87.7714" fill="white"/>
</clipPath>
</defs>
</svg>
